STARTFONT 2.1
COMMENT
COMMENT Converted from OpenType font "KSET_SKORO.TTF" by "otf2bdf 3.0".
COMMENT
FONT -FreeType-Kset Regular4-Medium-R-Normal--44-320-100-100-P-164-ISO10646-1
SIZE 32 100 100
FONTBOUNDINGBOX 39 39 -2 -7
STARTPROPERTIES 19
FOUNDRY "FreeType"
FAMILY_NAME "Kset Regular4"
WEIGHT_NAME "Medium"
SLANT "R"
SETWIDTH_NAME "Normal"
ADD_STYLE_NAME ""
PIXEL_SIZE 44
POINT_SIZE 320
RESOLUTION_X 100
RESOLUTION_Y 100
SPACING "P"
AVERAGE_WIDTH 164
CHARSET_REGISTRY "ISO10646"
CHARSET_ENCODING "1"
FONT_ASCENT 33
FONT_DESCENT 11
COPYRIGHT "-FreeType-Kset Regular4-Medium-R-Normal--44-320-100-100-P-164-ISO10646-1"
_OTF_FONTFILE "KSET_SKORO.TTF"
_OTF_PSNAME "KsetRegular4"
ENDPROPERTIES
CHARS 92
STARTCHAR 0020
ENCODING 32
SWIDTH 202 0
DWIDTH 9 0
BBX 0 0 0 0
BITMAP
ENDCHAR
STARTCHAR 0021
ENCODING 33
SWIDTH 202 0
DWIDTH 9 0
BBX 7 23 1 0
BITMAP
38
7C
FE
7C
7C
7C
7C
7C
7C
7C
7C
7C
7C
7C
7C
38
00
00
38
7C
7C
7C
38
ENDCHAR
STARTCHAR 0022
ENCODING 34
SWIDTH 292 0
DWIDTH 13 0
BBX 11 8 1 16
BITMAP
71C0
FBE0
FBE0
FBE0
FBE0
71C0
71C0
2080
ENDCHAR
STARTCHAR 0027
ENCODING 39
SWIDTH 157 0
DWIDTH 7 0
BBX 5 8 1 16
BITMAP
70
F8
F8
F8
F8
70
70
20
ENDCHAR
STARTCHAR 0028
ENCODING 40
SWIDTH 337 0
DWIDTH 15 0
BBX 8 30 2 -4
BITMAP
07
0F
1F
3F
3E
7E
7E
7C
7C
FC
F8
F8
F8
F8
F8
F8
F8
F8
F8
F8
FC
7C
7C
7C
7E
3E
3F
1F
1F
0F
ENDCHAR
STARTCHAR 0029
ENCODING 41
SWIDTH 292 0
DWIDTH 13 0
BBX 8 30 2 -4
BITMAP
E0
F0
F8
FC
7C
7C
7E
3E
3E
3F
1F
1F
1F
1F
1F
1F
1F
1F
1F
1F
3F
3E
3E
7E
7E
7C
FC
F8
F8
F0
ENDCHAR
STARTCHAR 002A
ENCODING 42
SWIDTH 270 0
DWIDTH 12 0
BBX 10 11 1 15
BITMAP
1C00
1C00
5C80
FFC0
FFC0
7F00
7F80
FFC0
FF80
1C00
1C00
ENDCHAR
STARTCHAR 002B
ENCODING 43
SWIDTH 382 0
DWIDTH 17 0
BBX 14 14 1 5
BITMAP
0780
0FC0
0FC0
0FC0
7FF8
FFFC
FFFC
FFFC
FFFC
7FF8
0FC0
0FC0
0FC0
0780
ENDCHAR
STARTCHAR 002C
ENCODING 44
SWIDTH 202 0
DWIDTH 9 0
BBX 5 8 2 -3
BITMAP
70
F8
F8
F8
78
78
F0
E0
ENDCHAR
STARTCHAR 002D
ENCODING 45
SWIDTH 427 0
DWIDTH 19 0
BBX 12 6 3 7
BITMAP
7FC0
FFE0
FFE0
FFF0
FFE0
7FC0
ENDCHAR
STARTCHAR 002E
ENCODING 46
SWIDTH 202 0
DWIDTH 9 0
BBX 5 5 2 0
BITMAP
70
F8
F8
F8
70
ENDCHAR
STARTCHAR 002F
ENCODING 47
SWIDTH 382 0
DWIDTH 17 0
BBX 15 28 1 -3
BITMAP
003E
003E
007C
007C
007C
00F8
00F8
00F8
01F0
01F0
01E0
03E0
03E0
07C0
07C0
07C0
0F80
0F80
0F80
1F00
1F00
1F00
3E00
3E00
3E00
7C00
7C00
F800
ENDCHAR
STARTCHAR 0030
ENCODING 48
SWIDTH 472 0
DWIDTH 21 0
BBX 19 23 0 0
BITMAP
03B800
0FBE00
3FBF80
3FBF80
7FBFC0
7FBFC0
7F1FC0
FE0FE0
FC07E0
FC07E0
FC07E0
FC07E0
FC07E0
FC07E0
FC07E0
FC07E0
7E0FC0
7E1FC0
7FBFC0
3FBF80
3FBF80
1FBE00
03B800
ENDCHAR
STARTCHAR 0031
ENCODING 49
SWIDTH 382 0
DWIDTH 17 0
BBX 14 23 1 0
BITMAP
0078
04FC
0CFC
3CFC
7CFC
FCFC
FCFC
FCFC
78FC
00FC
00FC
00FC
00FC
00FC
00FC
00FC
00FC
00FC
00FC
00FC
00FC
00FC
0078
ENDCHAR
STARTCHAR 0032
ENCODING 50
SWIDTH 405 0
DWIDTH 18 0
BBX 16 24 1 -1
BITMAP
07E0
1FF8
3FFC
7FFC
7E7E
7C7E
7C7E
7CFE
10FE
01FC
01FC
03F8
07F0
07F0
0FE0
1FC0
1FC0
3FBE
7F3F
7F7F
FE7F
FCFF
7DFE
1000
ENDCHAR
STARTCHAR 0033
ENCODING 51
SWIDTH 405 0
DWIDTH 18 0
BBX 16 23 1 0
BITMAP
79F0
F9F8
F9FC
F9FE
79FE
007E
003E
003E
007E
03FC
07FC
07F0
07FC
03FE
003F
003F
007F
79FF
F9FF
F9FF
F9FE
F9FC
79F8
ENDCHAR
STARTCHAR 0034
ENCODING 52
SWIDTH 427 0
DWIDTH 19 0
BBX 16 23 1 0
BITMAP
781E
FC3F
FC3F
FC3F
FC3F
FC3F
FC3F
FC3F
FC3F
FF3F
FF3F
FF3F
7F3F
7F3F
1F3F
003F
003F
003F
003F
003F
003F
003F
001E
ENDCHAR
STARTCHAR 0035
ENCODING 53
SWIDTH 405 0
DWIDTH 18 0
BBX 15 23 1 0
BITMAP
78FC
FCFE
FCFE
FCFE
FCFE
FCFC
FC00
FC00
FC00
FCF0
FCF8
FCFC
FCFC
FCFE
007E
003E
003E
007E
FFFE
FFFC
FFFC
FFF8
FFE0
ENDCHAR
STARTCHAR 0036
ENCODING 54
SWIDTH 382 0
DWIDTH 17 0
BBX 17 23 1 0
BITMAP
07BE00
1FBF00
3FBF00
3FBF00
7FBF00
7FBE00
7F0000
FE0000
FC0000
FC0000
FC7C00
FCFF00
FCFF00
FCFF80
FC1F80
FC0F80
7E0F80
7E0F80
3F1F80
3FFF00
1FFE00
0FFC00
03F000
ENDCHAR
STARTCHAR 0037
ENCODING 55
SWIDTH 427 0
DWIDTH 19 0
BBX 17 23 1 0
BITMAP
7FCF00
FF9F80
FF9F80
FFBF80
FF3F00
7F3F00
007E00
007E00
00FE00
00FC00
01FC00
01F800
01F800
03F800
03F000
07F000
07E000
07E000
0FC000
0FC000
0FC000
0F8000
070000
ENDCHAR
STARTCHAR 0038
ENCODING 56
SWIDTH 382 0
DWIDTH 17 0
BBX 16 23 0 0
BITMAP
0E70
1E7C
3E7C
7E7E
7C3E
7C3E
7E7E
7F3E
3F9C
3FC8
1FE0
0FF0
07F8
23FC
71FE
F8FF
FC7F
FC3F
FC3F
FE7F
7E7E
3E7C
0E70
ENDCHAR
STARTCHAR 0039
ENCODING 57
SWIDTH 472 0
DWIDTH 21 0
BBX 18 23 1 0
BITMAP
07F000
1FFC00
3FFE00
7FFF00
FC3F00
F83F80
F81F80
F81FC0
FC0FC0
FF0FC0
7F8FC0
3F8FC0
1F8FC0
000FC0
000FC0
001FC0
003F80
3E7F80
7E7F80
7E7F00
7E7F00
7E7E00
3E7800
ENDCHAR
STARTCHAR 003A
ENCODING 58
SWIDTH 202 0
DWIDTH 9 0
BBX 5 16 2 1
BITMAP
70
F8
F8
F8
70
00
00
00
00
00
00
70
F8
F8
F8
70
ENDCHAR
STARTCHAR 003B
ENCODING 59
SWIDTH 202 0
DWIDTH 9 0
BBX 5 20 2 -3
BITMAP
70
F8
F8
F8
70
00
00
00
00
00
00
00
70
F8
F8
F8
78
70
F0
E0
ENDCHAR
STARTCHAR 003C
ENCODING 60
SWIDTH 832 0
DWIDTH 37 0
BBX 15 17 9 4
BITMAP
003C
00FE
03FE
0FFE
3FFE
7FF8
FFE0
FF80
7E00
7840
01E0
07F0
0FF8
03FC
01FC
00FC
003C
ENDCHAR
STARTCHAR 003D
ENCODING 61
SWIDTH 427 0
DWIDTH 19 0
BBX 12 15 3 6
BITMAP
7FE0
FFF0
FFF0
FFF0
FFF0
7FE0
0000
0000
0000
7FE0
FFE0
FFF0
FFF0
FFE0
7FE0
ENDCHAR
STARTCHAR 003E
ENCODING 62
SWIDTH 832 0
DWIDTH 37 0
BBX 15 18 9 3
BITMAP
3800
7C00
FF00
FF80
7FC0
3FA0
0F18
047C
00FE
03FE
07FE
1FFC
3FF0
7FE0
7F80
7F00
3C00
1000
ENDCHAR
STARTCHAR 003F
ENCODING 63
SWIDTH 450 0
DWIDTH 20 0
BBX 14 24 2 0
BITMAP
0FC0
3FF0
7FF8
FFF8
FFFC
F8FC
F8FC
F8FC
F9FC
71F8
03F8
03F0
07F0
07E0
0FC0
0FC0
0F80
1F80
0000
1F80
1F80
1F80
1F80
0F00
ENDCHAR
STARTCHAR 0040
ENCODING 64
SWIDTH 652 0
DWIDTH 29 0
BBX 0 0 0 0
BITMAP
ENDCHAR
STARTCHAR 0041
ENCODING 65
SWIDTH 472 0
DWIDTH 21 0
BBX 21 23 0 0
BITMAP
007000
00F800
01F800
01F800
01F800
03FA00
03F200
07F300
07E700
07E780
0FE780
0FCF80
1FCFC0
1F8FC0
1FCFE0
3FE7E0
3FE7E0
7FF3F0
7FF3F0
7FF3F8
FE09F8
7C01F8
7C00F0
ENDCHAR
STARTCHAR 0042
ENCODING 66
SWIDTH 472 0
DWIDTH 21 0
BBX 17 23 2 0
BITMAP
FCFC00
FCFE00
FCFF00
FCFF00
FC3F80
FC1F80
FC1F80
FC1F80
FC1F80
FC3F00
FCFF00
FCFE00
FCFF00
FCFF00
FC3F80
FC1F80
FC1F80
FC1F80
FC1F80
FC3F80
FCFF00
FCFE00
78FC00
ENDCHAR
STARTCHAR 0043
ENCODING 67
SWIDTH 495 0
DWIDTH 22 0
BBX 18 23 1 0
BITMAP
079F80
1F9FC0
3F9FC0
3F9FC0
7F9FC0
7F9F80
7E0000
FE0000
FC0000
FC0000
FC0000
FC0000
FC0000
FC0000
FC0000
FE0000
7E0000
7F9F80
7F9FC0
3F9FC0
3F9FC0
1F9FC0
079F80
ENDCHAR
STARTCHAR 0044
ENCODING 68
SWIDTH 495 0
DWIDTH 22 0
BBX 17 23 2 0
BITMAP
FDF800
FDFC00
FDFE00
FDFE00
FDFF00
FC7F00
FC3F00
FC3F80
FC1F80
FC1F80
FC1F80
FC1F80
FC1F80
FC1F80
FC1F80
FC3F80
FC3F00
FC7F00
FDFF00
FDFE00
FDFE00
FDFC00
79F800
ENDCHAR
STARTCHAR 0045
ENCODING 69
SWIDTH 427 0
DWIDTH 19 0
BBX 15 23 2 0
BITMAP
FCFC
FCFE
FCFE
FCFE
FCFE
FCFC
FC00
FC00
FC00
FCFC
FCFE
FCFE
FCFE
FCFE
FCFC
FC00
FC00
FCFC
FCFE
FCFE
FCFE
FCFE
78FC
ENDCHAR
STARTCHAR 0046
ENCODING 70
SWIDTH 427 0
DWIDTH 19 0
BBX 15 23 2 0
BITMAP
FCFC
FCFE
FCFE
FCFE
FCFE
FCFC
FC00
FC00
FC00
FCFC
FCFE
FCFE
FCFE
FCFE
FCFC
FC00
FC00
FC00
FC00
FC00
FC00
FC00
7800
ENDCHAR
STARTCHAR 0047
ENCODING 71
SWIDTH 495 0
DWIDTH 22 0
BBX 19 23 1 0
BITMAP
078F80
1F8FC0
3F8FC0
3F9FC0
7F9FC0
7F9F80
7F0000
FE0000
FC0000
FC0000
FC0000
FC3F80
FC7FC0
FC7FC0
FC7FE0
FC3FE0
7E03E0
7F03E0
7FF3E0
3FF3E0
3FF3C0
1FE3C0
07E380
ENDCHAR
STARTCHAR 0048
ENCODING 72
SWIDTH 495 0
DWIDTH 22 0
BBX 18 23 2 0
BITMAP
780780
FC0FC0
FC0FC0
FC0FC0
FC0FC0
FC0FC0
FC0FC0
FC0FC0
FC0FC0
FFCFC0
FFCFC0
FFCFC0
FFCFC0
FFCFC0
FFCFC0
FC0FC0
FC0FC0
FC0FC0
FC0FC0
FC0FC0
FC0FC0
FC0FC0
780780
ENDCHAR
STARTCHAR 0049
ENCODING 73
SWIDTH 180 0
DWIDTH 8 0
BBX 6 23 1 0
BITMAP
78
FC
FC
FC
FC
FC
FC
FC
FC
FC
FC
FC
FC
FC
FC
FC
FC
FC
FC
FC
FC
FC
78
ENDCHAR
STARTCHAR 004A
ENCODING 74
SWIDTH 247 0
DWIDTH 11 0
BBX 11 30 -2 -7
BITMAP
03C0
07E0
07E0
07E0
07E0
07E0
07E0
07E0
07E0
07E0
07E0
07E0
07E0
07E0
07E0
07E0
07E0
07E0
07E0
07E0
07E0
07E0
07E0
07E0
67E0
E7C0
E7C0
E780
E700
6600
ENDCHAR
STARTCHAR 004B
ENCODING 75
SWIDTH 540 0
DWIDTH 24 0
BBX 20 23 2 0
BITMAP
3C00E0
7E01F0
7E03F0
7E07F0
7E0FF0
7E1FE0
7E1FC0
7E3F80
7E7F00
7CFF00
79FE00
79FC00
73F800
67F000
4FF300
9FE780
1FCFC0
3F8FE0
7F1FF0
FF0FF0
FE03F0
7C01F0
3800E0
ENDCHAR
STARTCHAR 004C
ENCODING 76
SWIDTH 405 0
DWIDTH 18 0
BBX 14 23 2 0
BITMAP
7800
FC00
FC00
FC00
FC00
FC00
FC00
FC00
FC00
FC00
FC00
FC00
FC00
FC00
FC00
FC00
FC00
FDF8
FDFC
FDFC
FDFC
FDFC
79F8
ENDCHAR
STARTCHAR 004D
ENCODING 77
SWIDTH 652 0
DWIDTH 29 0
BBX 24 23 2 0
BITMAP
18001E
7C003F
7E003F
7F007F
7F80FE
3F81FC
9FC3FD
8FE3F9
CFF7F3
E7F9E7
F3F9CF
F9FCDF
FCFE3F
FCFF3F
FC7F3F
FC3E3F
FC1C3F
FC003F
FC003F
FC003F
FC003F
FC003F
78001E
ENDCHAR
STARTCHAR 004E
ENCODING 78
SWIDTH 517 0
DWIDTH 23 0
BBX 20 23 2 0
BITMAP
300180
F807E0
FC07E0
FE07E0
FF07E0
7F87E0
3F87E0
9FC7E0
DFE7E0
CFF7E0
E7FBE0
F3F9E0
F9FCE0
FCFE60
FCFF20
FC7FA0
FC3F80
FC1FC0
FC0FE0
FC0FE0
FC07F0
FC03E0
7801C0
ENDCHAR
STARTCHAR 004F
ENCODING 79
SWIDTH 562 0
DWIDTH 25 0
BBX 20 23 2 0
BITMAP
039C00
0F9F00
1F9F80
3F9FC0
7F9FE0
7F9FE0
7F0FE0
FE07F0
FC03F0
FC03F0
FC03F0
FC03F0
FC03F0
FC03F0
FC03F0
FC03F0
7E07E0
7F0FE0
7F9FE0
3F9FC0
1F9F80
0F9F00
039C00
ENDCHAR
STARTCHAR 0050
ENCODING 80
SWIDTH 495 0
DWIDTH 22 0
BBX 17 23 2 0
BITMAP
FCF000
FCFC00
FCFE00
FCFF00
FCFF00
FC3F80
FC1F80
FC1F80
FC1F80
FC1F80
FC3F80
FCFF00
FCFF00
FCFE00
FCFC00
FCF000
FC0000
FC0000
FC0000
FC0000
FC0000
FC0000
780000
ENDCHAR
STARTCHAR 0051
ENCODING 81
SWIDTH 585 0
DWIDTH 26 0
BBX 20 26 3 -3
BITMAP
039C00
0F9F00
1F9F80
3F9FC0
7F9FE0
7F9FE0
7F0FE0
FE07F0
FC03F0
FC03F0
FC03F0
FC03F0
FC03F0
FC03F0
FC03F0
FC03F0
7E07E0
7F0FE0
7F9FE0
3F9FC0
1F9FC0
0F9FE0
039FF0
0003F0
0003E0
0001C0
ENDCHAR
STARTCHAR 0052
ENCODING 82
SWIDTH 472 0
DWIDTH 21 0
BBX 17 23 2 0
BITMAP
FCF800
FCFE00
FCFF00
FCFF00
FC3F80
FC1F80
FC1F80
FC1F80
FC1F80
FC3F00
FCFF00
FCFE00
FCF800
FC0000
FC0000
FCFC00
FCFE00
FC7F00
FC3F00
FC3F00
FC1F80
FC1F00
780E00
ENDCHAR
STARTCHAR 0053
ENCODING 83
SWIDTH 472 0
DWIDTH 21 0
BBX 18 23 1 0
BITMAP
00FF80
3C7FC0
7E3FC0
7F1FC0
7F0FC0
7F8780
3FC000
1FE000
0FF000
07F800
03FC00
01FE00
00FE00
007F00
007F80
383F80
7C1FC0
FE1FC0
FF3FC0
FFFFC0
7FFFC0
3FFF80
1FFF00
ENDCHAR
STARTCHAR 0054
ENCODING 84
SWIDTH 495 0
DWIDTH 22 0
BBX 20 23 1 0
BITMAP
7FFFC0
7FFFE0
FFFFF0
FFFFF0
7FFFE0
7FFFE0
000000
01F800
01F800
01F800
01F800
01F800
01F800
01F800
01F800
01F800
01F800
01F800
01F800
01F800
01F800
01F800
00F000
ENDCHAR
STARTCHAR 0055
ENCODING 85
SWIDTH 517 0
DWIDTH 23 0
BBX 19 23 2 0
BITMAP
7803C0
FC07E0
FC07E0
FC07E0
FC07E0
FC07E0
FC07E0
FC07E0
FC07E0
FC07E0
FC07E0
FC07E0
FC07E0
FC07E0
FC07E0
FC07E0
FE0FE0
FF3FE0
7F3FC0
7F3FC0
7F3F80
3F3F00
0F3C00
ENDCHAR
STARTCHAR 0056
ENCODING 86
SWIDTH 472 0
DWIDTH 21 0
BBX 20 23 0 0
BITMAP
7001C0
F803E0
FC03F0
FC07F0
FC07E0
FE07E0
7E0FE0
7F0FC0
3F1FC0
3F1F80
3F9F80
1F9F80
1FCF00
0FCF00
0FCE00
0FE600
07E600
07F400
03F000
03F000
03F000
01F000
01E000
ENDCHAR
STARTCHAR 0057
ENCODING 87
SWIDTH 855 0
DWIDTH 38 0
BBX 36 23 1 0
BITMAP
7001C000E0
F803F001F0
FC03F403F0
FC03F203F0
FC07E603F0
7E07E607F0
7E0FE707E0
7F0FCF0FE0
3F0FCF8FC0
3F1FDF8FC0
1F9F9F9FC0
1F9F8FCF80
1FCF0FCF80
0FCF0FE700
0FC707E700
07E607E700
07E603F200
07F403F200
03F003F800
03F001F800
01F801F800
01F000F800
00E000F000
ENDCHAR
STARTCHAR 0058
ENCODING 88
SWIDTH 540 0
DWIDTH 24 0
BBX 19 23 2 0
BITMAP
3001C0
F803E0
FC07E0
FE0FE0
FF0FE0
7F1FC0
3F9F80
1FCF80
1FE700
0FF200
07F000
03F800
01FC00
09FE00
0CFF00
1E7F00
3F3F80
7F1FC0
FF9FE0
FE0FE0
FC07E0
F803E0
7801C0
ENDCHAR
STARTCHAR 0059
ENCODING 89
SWIDTH 517 0
DWIDTH 23 0
BBX 19 23 1 0
BITMAP
380380
7C07C0
FC07C0
7E0FE0
7E0FC0
7F1FC0
3F1F80
3FBF80
1F3F00
1F3F00
0F7F00
0E7E00
06FE00
04FC00
04FC00
01F800
01F800
03F800
03F000
07F000
07E000
07E000
03C000
ENDCHAR
STARTCHAR 005A
ENCODING 90
SWIDTH 517 0
DWIDTH 23 0
BBX 20 24 1 -1
BITMAP
7FFCC0
7FF9E0
FFF3F0
FFE7F0
7FC7F0
7FCFE0
001FC0
003FC0
007F80
007F00
00FE00
01FE00
03FC00
03F800
07F000
0FE000
1FE000
1FCFE0
3F9FE0
7F3FF0
7F3FF0
7E7FE0
3CFFE0
180000
ENDCHAR
STARTCHAR 0061
ENCODING 97
SWIDTH 472 0
DWIDTH 21 0
BBX 21 23 0 0
BITMAP
007000
00F800
01F800
01F800
01F800
03FA00
03F200
07F300
07E700
07E780
0FE780
0FCF80
1FCFC0
1F8FC0
1FCFE0
3FE7E0
3FE7E0
7FF3F0
7FF3F0
7FF3F8
FE09F8
7C01F8
7C00F0
ENDCHAR
STARTCHAR 0062
ENCODING 98
SWIDTH 472 0
DWIDTH 21 0
BBX 17 23 2 0
BITMAP
FCFC00
FCFE00
FCFF00
FCFF00
FC3F80
FC1F80
FC1F80
FC1F80
FC1F80
FC3F00
FCFF00
FCFE00
FCFF00
FCFF00
FC3F80
FC1F80
FC1F80
FC1F80
FC1F80
FC3F80
FCFF00
FCFE00
78FC00
ENDCHAR
STARTCHAR 0063
ENCODING 99
SWIDTH 495 0
DWIDTH 22 0
BBX 18 23 1 0
BITMAP
079F80
1F9FC0
3F9FC0
3F9FC0
7F9FC0
7F9F80
7E0000
FE0000
FC0000
FC0000
FC0000
FC0000
FC0000
FC0000
FC0000
FE0000
7E0000
7F9F80
7F9FC0
3F9FC0
3F9FC0
1F9FC0
079F80
ENDCHAR
STARTCHAR 0064
ENCODING 100
SWIDTH 495 0
DWIDTH 22 0
BBX 17 23 2 0
BITMAP
FDF800
FDFC00
FDFE00
FDFE00
FDFF00
FC7F00
FC3F00
FC3F80
FC1F80
FC1F80
FC1F80
FC1F80
FC1F80
FC1F80
FC1F80
FC3F80
FC3F00
FC7F00
FDFF00
FDFE00
FDFE00
FDFC00
79F800
ENDCHAR
STARTCHAR 0065
ENCODING 101
SWIDTH 427 0
DWIDTH 19 0
BBX 15 23 2 0
BITMAP
FCFC
FCFE
FCFE
FCFE
FCFE
FCFC
FC00
FC00
FC00
FCFC
FCFE
FCFE
FCFE
FCFE
FCFC
FC00
FC00
FCFC
FCFE
FCFE
FCFE
FCFE
78FC
ENDCHAR
STARTCHAR 0066
ENCODING 102
SWIDTH 427 0
DWIDTH 19 0
BBX 15 23 2 0
BITMAP
FCFC
FCFE
FCFE
FCFE
FCFE
FCFC
FC00
FC00
FC00
FCFC
FCFE
FCFE
FCFE
FCFE
FCFC
FC00
FC00
FC00
FC00
FC00
FC00
FC00
7800
ENDCHAR
STARTCHAR 0067
ENCODING 103
SWIDTH 472 0
DWIDTH 21 0
BBX 18 23 1 0
BITMAP
079F00
1F9F80
3F9F80
3F9F80
7F9F80
7F9F00
7E0000
FE0000
FC0000
FC0000
FC0000
FC3F00
FC7F80
FC7F80
FC7FC0
FE7FC0
7F0FC0
7FEFC0
7FEFC0
3FEFC0
3FEF80
1FEF80
07EF00
ENDCHAR
STARTCHAR 0068
ENCODING 104
SWIDTH 495 0
DWIDTH 22 0
BBX 18 23 2 0
BITMAP
780780
FC0FC0
FC0FC0
FC0FC0
FC0FC0
FC0FC0
FC0FC0
FC0FC0
FC0FC0
FFCFC0
FFCFC0
FFCFC0
FFCFC0
FFCFC0
FFCFC0
FC0FC0
FC0FC0
FC0FC0
FC0FC0
FC0FC0
FC0FC0
FC0FC0
780780
ENDCHAR
STARTCHAR 0069
ENCODING 105
SWIDTH 180 0
DWIDTH 8 0
BBX 6 23 1 0
BITMAP
78
FC
FC
FC
FC
FC
FC
FC
FC
FC
FC
FC
FC
FC
FC
FC
FC
FC
FC
FC
FC
FC
78
ENDCHAR
STARTCHAR 006A
ENCODING 106
SWIDTH 247 0
DWIDTH 11 0
BBX 11 30 -2 -7
BITMAP
03C0
07E0
07E0
07E0
07E0
07E0
07E0
07E0
07E0
07E0
07E0
07E0
07E0
07E0
07E0
07E0
07E0
07E0
07E0
07E0
07E0
07E0
07E0
07E0
67E0
E7C0
E7C0
E780
E700
6600
ENDCHAR
STARTCHAR 006B
ENCODING 107
SWIDTH 540 0
DWIDTH 24 0
BBX 20 23 2 0
BITMAP
3C00E0
7E01F0
7E03F0
7E07F0
7E0FF0
7E1FE0
7E1FC0
7E3F80
7E7F00
7CFF00
79FE00
79FC00
73F800
67F000
4FF300
9FE780
1FCFC0
3F8FE0
7F1FF0
FF0FF0
FE03F0
7C01F0
3800E0
ENDCHAR
STARTCHAR 006C
ENCODING 108
SWIDTH 405 0
DWIDTH 18 0
BBX 14 23 2 0
BITMAP
7800
FC00
FC00
FC00
FC00
FC00
FC00
FC00
FC00
FC00
FC00
FC00
FC00
FC00
FC00
FC00
FC00
FDF8
FDFC
FDFC
FDFC
FDFC
79F8
ENDCHAR
STARTCHAR 006D
ENCODING 109
SWIDTH 652 0
DWIDTH 29 0
BBX 24 23 2 0
BITMAP
18001E
7C003F
7E003F
7F007F
7F80FE
3F81FC
9FC3FD
8FE3F9
CFF7F3
E7F9E7
F3F9CF
F9FCDF
FCFE3F
FCFF3F
FC7F3F
FC3E3F
FC1C3F
FC003F
FC003F
FC003F
FC003F
FC003F
78001E
ENDCHAR
STARTCHAR 006E
ENCODING 110
SWIDTH 517 0
DWIDTH 23 0
BBX 20 23 2 0
BITMAP
300180
F807E0
FC07E0
FE07E0
FF07E0
7F87E0
3F87E0
9FC7E0
DFE7E0
CFF7E0
E7FBE0
F3F9E0
F9FCE0
FCFE60
FCFF20
FC7FA0
FC3F80
FC1FC0
FC0FE0
FC0FE0
FC07F0
FC03E0
7801C0
ENDCHAR
STARTCHAR 006F
ENCODING 111
SWIDTH 562 0
DWIDTH 25 0
BBX 20 23 2 0
BITMAP
039C00
0F9F00
1F9F80
3F9FC0
7F9FE0
7F9FE0
7E07E0
FE07F0
FC03F0
FC03F0
FC03F0
FC03F0
FC03F0
FC03F0
FC03F0
FE07F0
7E07E0
7F9FE0
7F9FE0
3F9FC0
1F9F80
0F9F00
039C00
ENDCHAR
STARTCHAR 0070
ENCODING 112
SWIDTH 495 0
DWIDTH 22 0
BBX 17 23 2 0
BITMAP
FCF000
FCFC00
FCFE00
FCFF00
FCFF00
FC3F80
FC1F80
FC1F80
FC1F80
FC1F80
FC3F80
FCFF00
FCFF00
FCFE00
FCFC00
FCF000
FC0000
FC0000
FC0000
FC0000
FC0000
FC0000
780000
ENDCHAR
STARTCHAR 0071
ENCODING 113
SWIDTH 585 0
DWIDTH 26 0
BBX 20 26 3 -3
BITMAP
039C00
0F9F00
1F9F80
3F9FC0
7F9FE0
7F9FE0
7F0FE0
FE07F0
FC03F0
FC03F0
FC03F0
FC03F0
FC03F0
FC03F0
FC03F0
FE07F0
7F0FE0
7F9FE0
7F9FE0
3F9FC0
1F9FC0
0F9FE0
039FF0
0003F0
0003E0
0001C0
ENDCHAR
STARTCHAR 0072
ENCODING 114
SWIDTH 472 0
DWIDTH 21 0
BBX 17 23 2 0
BITMAP
FCF800
FCFE00
FCFF00
FCFF00
FC3F80
FC1F80
FC1F80
FC1F80
FC1F80
FC3F00
FCFF00
FCFE00
FCF800
FC0000
FC0000
FC0000
FCFC00
FC7E00
FC7F00
FC3F00
FC3F80
FC1F00
780E00
ENDCHAR
STARTCHAR 0073
ENCODING 115
SWIDTH 472 0
DWIDTH 21 0
BBX 18 23 1 0
BITMAP
3CFF80
7E7FC0
7F3FC0
7F1FC0
7F8FC0
3FC780
1FE000
0FF000
07F800
03FC00
01FE00
00FE00
007F00
007F80
003F80
3C1FC0
7E1FC0
FF3FC0
FFFFC0
FFFFC0
7FFF80
3FFF80
1FFE00
ENDCHAR
STARTCHAR 0074
ENCODING 116
SWIDTH 495 0
DWIDTH 22 0
BBX 20 23 1 0
BITMAP
7FFFC0
7FFFE0
FFFFF0
FFFFF0
7FFFE0
7FFFE0
000000
01F800
01F800
01F800
01F800
01F800
01F800
01F800
01F800
01F800
01F800
01F800
01F800
01F800
01F800
01F800
00F000
ENDCHAR
STARTCHAR 0075
ENCODING 117
SWIDTH 517 0
DWIDTH 23 0
BBX 19 23 2 0
BITMAP
7803C0
FC07E0
FC07E0
FC07E0
FC07E0
FC07E0
FC07E0
FC07E0
FC07E0
FC07E0
FC07E0
FC07E0
FC07E0
FC07E0
FC07E0
FC07E0
FE0FE0
FFBFE0
7FBFC0
7FBFC0
3FBF80
1FBF00
07BC00
ENDCHAR
STARTCHAR 0076
ENCODING 118
SWIDTH 472 0
DWIDTH 21 0
BBX 20 23 0 0
BITMAP
7001C0
F803E0
FC03F0
FC07F0
FC07E0
FE07E0
7E0FE0
7F0FC0
3F1FC0
3F1F80
3F9F80
1F9F80
1FCF00
0FCF00
0FCE00
0FE600
07E600
07F400
03F000
03F000
03F000
01F000
01E000
ENDCHAR
STARTCHAR 0077
ENCODING 119
SWIDTH 855 0
DWIDTH 38 0
BBX 36 23 1 0
BITMAP
7001C000E0
F803F001F0
FC03F403F0
FC03F203F0
FC07E603F0
7E07E607F0
7E0FE707E0
7F0FCF0FE0
3F0FCF8FC0
3F1FDF8FC0
1F9F9F9FC0
1F9F8FCF80
1FCF0FCF80
0FCF0FE700
0FC707E700
07E607E700
07E603F200
07F403F200
03F003F800
03F001F800
01F801F800
01F000F800
00E000F000
ENDCHAR
STARTCHAR 0078
ENCODING 120
SWIDTH 540 0
DWIDTH 24 0
BBX 19 23 2 0
BITMAP
3001C0
F803E0
FC07E0
FE0FE0
FF0FE0
7F1FC0
3F9F80
1FCF80
1FE700
0FF200
07F000
03F800
01FC00
09FE00
0CFF00
1E7F00
3F3F80
7F1FC0
FF9FE0
FE0FE0
FC07E0
F803E0
7801C0
ENDCHAR
STARTCHAR 0079
ENCODING 121
SWIDTH 517 0
DWIDTH 23 0
BBX 19 23 1 0
BITMAP
380380
7C07C0
FC07C0
7E0FE0
7E0FC0
7F1FC0
3F1F80
3FBF80
1F3F00
1F3F00
0F7F00
0E7E00
06FE00
04FC00
04FC00
01F800
01F800
03F800
03F000
07F000
07E000
07E000
03C000
ENDCHAR
STARTCHAR 007A
ENCODING 122
SWIDTH 517 0
DWIDTH 23 0
BBX 20 24 1 -1
BITMAP
7FFCC0
7FF9E0
FFF3F0
FFE7F0
7FC7F0
7FCFE0
001FC0
003FC0
007F80
007F00
00FE00
01FE00
03FC00
03F800
07F000
0FE000
1FE000
1FCFE0
3F9FE0
7F3FF0
7F3FF0
7E7FE0
3CFFE0
180000
ENDCHAR
STARTCHAR 00A0
ENCODING 160
SWIDTH 202 0
DWIDTH 9 0
BBX 0 0 0 0
BITMAP
ENDCHAR
STARTCHAR 0106
ENCODING 262
SWIDTH 517 0
DWIDTH 23 0
BBX 18 32 2 0
BITMAP
000700
000F80
003F80
007F80
00FF00
00FC00
00F000
000000
000000
079F80
1F9FC0
3F9FC0
3F9FC0
7F9FC0
7F9F80
7E0000
FE0000
FC0000
FC0000
FC0000
FC0000
FC0000
FC0000
FC0000
FE0000
7E0000
7F9F80
7F9FC0
3F9FC0
3F9FC0
1F9FC0
079F80
ENDCHAR
STARTCHAR 0107
ENCODING 263
SWIDTH 517 0
DWIDTH 23 0
BBX 18 32 2 0
BITMAP
000700
000F80
003F80
007F80
00FF00
00FC00
00F000
000000
000000
079F80
1F9FC0
3F9FC0
3F9FC0
7F9FC0
7F9F80
7E0000
FE0000
FC0000
FC0000
FC0000
FC0000
FC0000
FC0000
FC0000
FE0000
7E0000
7F9F80
7F9FC0
3F9FC0
3F9FC0
1F9FC0
079F80
ENDCHAR
STARTCHAR 010C
ENCODING 268
SWIDTH 472 0
DWIDTH 21 0
BBX 17 32 1 0
BITMAP
180380
3F0F80
1FFF80
0FFF00
07FC00
03F800
00E000
000000
000000
07BF00
1FBF80
3FBF80
3FBF80
7FBF80
7FBF00
7E0000
FE0000
FC0000
FC0000
FC0000
FC0000
FC0000
FC0000
FC0000
FE0000
7E0000
7FBF00
7FBF80
3FBF80
3FBF80
1FBF80
07BF00
ENDCHAR
STARTCHAR 010D
ENCODING 269
SWIDTH 472 0
DWIDTH 21 0
BBX 17 32 1 0
BITMAP
180380
3F0F80
1FFF80
0FFF00
07FC00
03F800
00E000
000000
000000
07BF00
1FBF80
3FBF80
3FBF80
7FBF80
7FBF00
7E0000
FE0000
FC0000
FC0000
FC0000
FC0000
FC0000
FC0000
FC0000
FE0000
7E0000
7FBF00
7FBF80
3FBF80
3FBF80
1FBF80
07BF00
ENDCHAR
STARTCHAR 0110
ENCODING 272
SWIDTH 472 0
DWIDTH 21 0
BBX 17 23 2 0
BITMAP
FDF800
FDFC00
FDFE00
FDFE00
FDFF00
FC7F00
FC3F00
FC3F80
FC1F80
FC1F80
FF9F80
FFDF80
FFDF80
FFDF80
FFDF80
FFBF80
FC3F00
FC7F00
FDFF00
FDFE00
FDFE00
FDFC00
79F800
ENDCHAR
STARTCHAR 0111
ENCODING 273
SWIDTH 472 0
DWIDTH 21 0
BBX 17 23 2 0
BITMAP
FDF800
FDFC00
FDFE00
FDFE00
FDFF00
FC7F00
FC3F00
FC3F80
FC1F80
FC1F80
FF9F80
FFDF80
FFDF80
FFDF80
FFDF80
FFBF80
FC3F00
FC7F00
FDFF00
FDFE00
FDFE00
FDFC00
79F800
ENDCHAR
STARTCHAR 0160
ENCODING 352
SWIDTH 472 0
DWIDTH 21 0
BBX 18 32 1 0
BITMAP
380700
3E1F00
3FFF00
1FFE00
0FFC00
03F000
01E000
000000
000000
00FF80
3C7FC0
7E3FC0
7F1FC0
7F0FC0
7F8780
3FC000
1FE000
0FF000
07F800
03FC00
01FE00
00FE00
007F00
007F80
383F80
7C1FC0
FE1FC0
FF3FC0
FFFFC0
7FFFC0
3FFF80
1FFF00
ENDCHAR
STARTCHAR 0161
ENCODING 353
SWIDTH 472 0
DWIDTH 21 0
BBX 18 32 1 0
BITMAP
380700
3E1F00
3FFF00
1FFE00
0FFC00
03F000
01E000
000000
000000
3CFF80
7E7FC0
7F3FC0
7F1FC0
7F8FC0
3FC780
1FE000
0FF000
07F800
03FC00
01FE00
00FE00
007F00
007F80
003F80
3C1FC0
7E1FC0
FF3FC0
FFFFC0
FFFFC0
7FFF80
3FFF80
1FFE00
ENDCHAR
STARTCHAR 017D
ENCODING 381
SWIDTH 517 0
DWIDTH 23 0
BBX 20 33 1 -1
BITMAP
0E01C0
1F87C0
0FFFC0
07FF80
03FF00
01FC00
007000
000000
000000
7FFCC0
7FF9E0
FFF3F0
FFE7F0
7FC7F0
7FCFE0
001FC0
003FC0
007F80
007F00
00FE00
01FE00
03FC00
03F800
07F000
0FE000
1FE000
1FCFE0
3F9FE0
7F3FF0
7F3FF0
7E7FE0
3CFFE0
180000
ENDCHAR
STARTCHAR 017E
ENCODING 382
SWIDTH 517 0
DWIDTH 23 0
BBX 20 33 1 -1
BITMAP
0E01C0
1F87C0
0FFFC0
07FF80
03FF00
01FC00
007000
000000
000000
7FFCC0
7FF9E0
FFF3F0
FFE7F0
7FC7F0
7FCFE0
001FC0
003FC0
007F80
007F00
00FE00
01FE00
03FC00
03F800
07F000
0FE000
1FE000
1FCFE0
3F9FE0
7F3FF0
7F3FF0
7E7FE0
3CFFE0
180000
ENDCHAR
ENDFONT
